<?xml version="1.0" encoding="UTF-8"?>
<svg xmlns="http://www.w3.org/2000/svg" viewBox="43.51 0 94.83 132.51">
  <defs>
    <style>
      .cls-1 {
        font-family: zwodrei-Bold, 'zwodrei - free';
        font-size: 35.52px;
        font-weight: 700;
      }

      .cls-1, .cls-2 {
        fill: #FFFFFF;
      }

      .cls-2, .cls-3 {
        stroke-width: 0px;
      }

      .cls-3 {
        fill: #FFFFFF;
      }
    </style>
  </defs>
  <g>
    <polygon class="cls-3" points="64.8 35.62 43.51 49.17 43.51 103.75 59.8 113.34 59.8 58.92 72.3 50.33 72.3 121.67 93.56 132.51 93.56 61.46 72.3 45.41 54.59 56.67 54.59 105 47.5 100.84 47.5 51.87 65.42 41.04 64.8 35.62"/>
    <polygon class="cls-2" points="138.34 47.92 138.34 105.43 103.96 125 103.96 9.58 77.09 24.55 76.88 42.71 72.29 39.78 72.29 20.2 108.97 0 108.97 46.9 127.92 56.25 127.92 65.83 108.97 56.25 108.97 64.99 127.92 74.34 127.92 83.92 108.97 74.34 108.97 84.06 126.68 93.96 126.68 105.43 133.34 101.04 133.34 51.87 115.21 41.66 115.21 35.62 138.34 47.92"/>
  </g>
</svg>
